<?xml version="1.0" ?><!DOCTYPE svg  PUBLIC '-//W3C//DTD SVG 1.1//EN'  'http://www.w3.org/Graphics/SVG/1.1/DTD/svg11.dtd'><svg enable-background="new 0 0 91 91" height="91px" id="Layer_1" version="1.1" viewBox="0 0 91 91" width="91px" xml:space="preserve" xmlns="http://www.w3.org/2000/svg" xmlns:xlink="http://www.w3.org/1999/xlink"><g><path d="M49.061,28.644v-6.445h-3.4v6.445c-9.764,0.821-17.561,8.619-18.381,18.386h-6.447v3.4h6.447   c0.82,9.764,8.617,17.56,18.381,18.381v6.448h3.4v-6.448c9.766-0.821,17.563-8.617,18.383-18.381h6.447v-3.4h-6.447   C66.623,37.263,58.826,29.465,49.061,28.644z M49.061,65.41v-5.14h-3.4v5.14c-7.891-0.799-14.182-7.09-14.98-14.98h5.139v-3.4   H30.68c0.797-7.894,7.09-14.187,14.98-14.985v5.141h3.4v-5.141c7.893,0.799,14.184,7.092,14.982,14.985h-5.139v3.4h5.139   C63.244,58.32,56.953,64.611,49.061,65.41z" fill="#010101"/><path d="M47.361,45.528c-1.764,0-3.199,1.436-3.199,3.199s1.436,3.199,3.199,3.199s3.199-1.436,3.199-3.199   S49.125,45.528,47.361,45.528z M47.16,48.728c0-0.11,0.09-0.201,0.201-0.201s0.201,0.091,0.201,0.201   C47.563,48.947,47.16,48.949,47.16,48.728z" fill="#010101"/></g></svg>